<svg xmlns="http://www.w3.org/2000/svg" viewBox="0 0 500 300" role="img"><rect width="500" height="300" rx="18" fill="#fbf7f0"/><text x="22" y="30" fill="#735c4b" font-family="Arial,sans-serif" font-size="13" font-weight="bold" letter-spacing="2">FLAGS · ORIGINAL VECTOR DIAGRAM</text><rect x="78" y="60" width="344" height="176" rx="0" fill="#214f98" stroke="#344965" stroke-width="3"/><polygon points="250.0,88.0 252.0,93.3 257.6,93.5 253.2,97.0 254.7,102.5 250.0,99.4 245.3,102.5 246.8,97.0 242.4,93.5 248.0,93.3" fill="#f7cc54"/><polygon points="276.0,95.0 278.0,100.2 283.6,100.5 279.2,104.0 280.7,109.4 276.0,106.3 271.3,109.4 272.8,104.0 268.4,100.5 274.0,100.2" fill="#f7cc54"/><polygon points="295.0,114.0 297.0,119.3 302.6,119.5 298.2,123.0 299.7,128.5 295.0,125.4 290.3,128.5 291.8,123.0 287.4,119.5 293.1,119.3" fill="#f7cc54"/><polygon points="302.0,140.0 304.0,145.3 309.6,145.5 305.2,149.0 306.7,154.5 302.0,151.4 297.3,154.5 298.8,149.0 294.4,145.5 300.0,145.3" fill="#f7cc54"/><polygon points="295.0,166.0 297.0,171.3 302.6,171.5 298.2,175.0 299.7,180.5 295.0,177.4 290.3,180.5 291.8,175.0 287.4,171.5 293.1,171.3" fill="#f7cc54"/><polygon points="276.0,185.0 278.0,190.3 283.6,190.6 279.2,194.1 280.7,199.5 276.0,196.4 271.3,199.5 272.8,194.1 268.4,190.6 274.0,190.3" fill="#f7cc54"/><polygon points="250.0,192.0 252.0,197.3 257.6,197.5 253.2,201.0 254.7,206.5 250.0,203.4 245.3,206.5 246.8,201.0 242.4,197.5 248.0,197.3" fill="#f7cc54"/><polygon points="224.0,185.0 226.0,190.3 231.6,190.6 227.2,194.1 228.7,199.5 224.0,196.4 219.3,199.5 220.8,194.1 216.4,190.6 222.0,190.3" fill="#f7cc54"/><polygon points="205.0,166.0 206.9,171.3 212.6,171.5 208.2,175.0 209.7,180.5 205.0,177.4 200.3,180.5 201.8,175.0 197.4,171.5 203.0,171.3" fill="#f7cc54"/><polygon points="198.0,140.0 200.0,145.3 205.6,145.5 201.2,149.0 202.7,154.5 198.0,151.4 193.3,154.5 194.8,149.0 190.4,145.5 196.0,145.3" fill="#f7cc54"/><polygon points="205.0,114.0 206.9,119.3 212.6,119.5 208.2,123.0 209.7,128.5 205.0,125.4 200.3,128.5 201.8,123.0 197.4,119.5 203.0,119.3" fill="#f7cc54"/><polygon points="224.0,95.0 226.0,100.2 231.6,100.5 227.2,104.0 228.7,109.4 224.0,106.3 219.3,109.4 220.8,104.0 216.4,100.5 222.0,100.2" fill="#f7cc54"/><text x="22" y="287" fill="#746c64" font-family="Arial,sans-serif" font-size="10">CapyBürger original study art · not the BAMF photograph or diagram</text></svg>