<svg xmlns="http://www.w3.org/2000/svg" viewBox="0 0 500 300" role="img"><rect width="500" height="300" rx="18" fill="#fbf7f0"/><text x="22" y="30" fill="#735c4b" font-family="Arial,sans-serif" font-size="13" font-weight="bold" letter-spacing="2">STATE EMBLEM · SIMPLIFIED STUDY SYMBOL</text><path d="M250 43 L359 81 L342 184 Q300 255 250 270 Q200 255 158 184 L141 81 Z" fill="#efbe51" stroke="#594534" stroke-width="6"/><g transform="translate(150,47) scale(.4)"><ellipse cx="253" cy="174" rx="52" ry="27" fill="#342c26"/><circle cx="200" cy="145" r="31" fill="#342c26"/><circle cx="199" cy="143" r="17" fill="#edd3a0"/><path d="M273 170 Q326 149 321 122" fill="none" stroke="#342c26" stroke-width="10"/><path d="M219 191 V224 M273 192 V224" stroke="#342c26" stroke-width="12" stroke-linecap="round"/></g><g transform="translate(150,99) scale(.4)"><ellipse cx="253" cy="174" rx="52" ry="27" fill="#342c26"/><circle cx="200" cy="145" r="31" fill="#342c26"/><circle cx="199" cy="143" r="17" fill="#edd3a0"/><path d="M273 170 Q326 149 321 122" fill="none" stroke="#342c26" stroke-width="10"/><path d="M219 191 V224 M273 192 V224" stroke="#342c26" stroke-width="12" stroke-linecap="round"/></g><g transform="translate(150,151) scale(.4)"><ellipse cx="253" cy="174" rx="52" ry="27" fill="#342c26"/><circle cx="200" cy="145" r="31" fill="#342c26"/><circle cx="199" cy="143" r="17" fill="#edd3a0"/><path d="M273 170 Q326 149 321 122" fill="none" stroke="#342c26" stroke-width="10"/><path d="M219 191 V224 M273 192 V224" stroke="#342c26" stroke-width="12" stroke-linecap="round"/></g><text x="22" y="287" fill="#746c64" font-family="Arial,sans-serif" font-size="10">CapyBürger original study art · not the BAMF photograph or diagram</text></svg>